<svg xmlns="http://www.w3.org/2000/svg" width="600.06" height="271.092" viewBox="0 0 600.06 271.092"><g transform="translate(0 0)"><rect width="18.136" height="62.779" transform="translate(524.369 109.179)" fill="#f2f2f2"/><path d="M798.52,231.528,754.41,179.052l-88.542.809-53.712,52.316,1.085.7h-.388V341.693H798.4V232.875Z" transform="translate(-244.038 -71.38)" fill="#f2f2f2"/><path d="M812.26,179.238l-55.106,64.606v97.923h99.052V231.554Z" transform="translate(-301.842 -71.454)" fill="#e6e6e6"/><rect width="20.229" height="17.88" transform="translate(495.072 216.161)" fill="#3f3d56"/><rect width="20.229" height="17.596" transform="translate(495.072 185.212)" fill="#3f3d56"/><rect width="20.229" height="17.88" transform="translate(495.072 216.161)" fill="#fff"/><rect width="20.229" height="17.596" transform="translate(495.072 185.212)" fill="#fff"/><rect width="20.229" height="17.88" transform="translate(405.173 211.416)" fill="#fff"/><rect width="20.229" height="17.596" transform="translate(405.173 180.468)" fill="#fff"/><rect width="18.136" height="62.779" transform="translate(381.249 109.179)" fill="#f2f2f2"/><path d="M560.521,231.528,516.41,179.052l-88.542.809-53.712,52.316,1.085.7h-.388V341.693H560.4V232.875Z" transform="translate(-149.159 -71.38)" fill="#f2f2f2"/><path d="M574.26,179.238l-55.106,64.606v97.923h99.052V231.554Z" transform="translate(-206.963 -71.454)" fill="#e6e6e6"/><rect width="20.229" height="17.88" transform="translate(351.951 216.161)" fill="#3f3d56"/><rect width="20.229" height="17.596" transform="translate(351.951 185.212)" fill="#3f3d56"/><rect width="20.229" height="17.88" transform="translate(351.951 216.161)" fill="#fff"/><rect width="20.229" height="17.596" transform="translate(351.951 185.212)" fill="#fff"/><rect width="20.229" height="17.88" transform="translate(262.053 211.416)" fill="#fff"/><rect width="20.229" height="17.596" transform="translate(262.053 180.468)" fill="#fff"/><rect width="24.234" height="83.888" transform="translate(228.604 54.999)" fill="#f2f2f2"/><path d="M281.979,158.233,223.037,88.112,104.722,89.193,32.951,159.1l1.45.932h-.518V305.439H281.82V160.032Z" transform="translate(-13.136 -35.126)" fill="#f2f2f2"/><path d="M300.337,88.36,226.7,174.69V305.538H359.06V158.267Z" transform="translate(-90.376 -35.225)" fill="#e6e6e6"/><rect width="27.031" height="23.892" transform="translate(189.456 197.952)" fill="#3f3d56"/><rect width="27.031" height="23.513" transform="translate(189.456 156.598)" fill="#3f3d56"/><rect width="27.031" height="23.892" transform="translate(189.456 197.952)" fill="#fff"/><rect width="27.031" height="23.513" transform="translate(189.456 156.598)" fill="#fff"/><rect width="27.031" height="23.892" transform="translate(69.329 191.613)" fill="#fff"/><rect width="27.031" height="23.513" transform="translate(69.329 150.258)" fill="#fff"/><rect width="579.669" height="1.203" transform="translate(0 269.776)" fill="#3f3d56"/><ellipse cx="17.499" cy="35.705" rx="17.499" ry="35.705" transform="translate(73.829 176.253)" fill="#3f3d56"/><path d="M253.554,618.326c-7.008-42.049-.071-83.947,0-84.365l1.363.231c-.071.416-6.969,42.093,0,83.907Z" transform="translate(-160.61 -347.925)" fill="#07aeea"/><rect width="17.945" height="1.383" transform="translate(90.909 212.743) rotate(-28.142)" fill="#07aeea"/><rect width="1.383" height="17.946" transform="translate(74.209 209.738) rotate(-61.842)" fill="#07aeea"/><ellipse cx="34.226" cy="69.834" rx="34.226" ry="69.834" transform="translate(15.058 87.059)" fill="#07aeea"/><path d="M185.31,566.16c-13.689-82.135-.138-163.971,0-164.788l1.363.231c-.138.815-13.65,82.431,0,164.33Z" transform="translate(-132.215 -295.068)" fill="#3f3d56"/><rect width="35.099" height="1.383" transform="translate(48.777 159.013) rotate(-28.142)" fill="#3f3d56"/><rect width="1.383" height="35.099" transform="translate(16.114 151.973) rotate(-61.842)" fill="#3f3d56"/><ellipse cx="46.835" cy="95.562" rx="46.835" ry="95.562" transform="translate(83.509 19.3)" fill="#07aeea"/><path d="M321.371,525.968c-18.726-112.354-.189-224.3,0-225.415l1.363.231c-.189,1.115-18.686,112.839,0,224.957Z" transform="translate(-185.559 -254.876)" fill="#3f3d56"/><rect width="48.03" height="1.383" transform="translate(129.771 117.988) rotate(-28.142)" fill="#3f3d56"/><rect width="1.383" height="48.03" transform="matrix(0.472, -0.882, 0.882, 0.472, 85.074, 107.901)" fill="#3f3d56"/><ellipse cx="17.499" cy="35.705" rx="17.499" ry="35.705" transform="translate(506.291 176.253)" fill="#3f3d56"/><path d="M968.508,618.326c7.008-42.049.071-83.947,0-84.365l-1.363.231c.071.416,6.969,42.093,0,83.907Z" transform="translate(-446.333 -347.925)" fill="#07aeea"/><rect width="1.383" height="17.945" transform="translate(507.729 205.502) rotate(-61.858)" fill="#07aeea"/><rect width="17.946" height="1.383" transform="translate(524.433 216.991) rotate(-28.158)" fill="#07aeea"/><ellipse cx="34.226" cy="69.834" rx="34.226" ry="69.834" transform="translate(531.609 87.059)" fill="#07aeea"/><path d="M1034.776,566.16c13.689-82.135.138-163.971,0-164.788l-1.363.231c.138.815,13.65,82.431,0,164.33Z" transform="translate(-472.751 -295.068)" fill="#3f3d56"/><rect width="1.383" height="35.099" transform="translate(534.735 143.681) rotate(-61.858)" fill="#3f3d56"/><rect width="35.099" height="1.383" transform="translate(567.406 167.311) rotate(-28.158)" fill="#3f3d56"/><ellipse cx="46.835" cy="95.562" rx="46.835" ry="95.562" transform="translate(437.939 19.3)" fill="#07aeea"/><path d="M897.22,525.968c18.726-112.354.189-224.3,0-225.415l-1.363.231c.189,1.115,18.686,112.839,0,224.957Z" transform="translate(-417.914 -254.876)" fill="#3f3d56"/><rect width="1.383" height="48.03" transform="translate(442.339 96.556) rotate(-61.858)" fill="#3f3d56"/><rect width="48.03" height="1.383" transform="matrix(0.882, -0.472, 0.472, 0.882, 487.043, 129.35)" fill="#3f3d56"/><path d="M685.19,323.086l5.536-4.428c-4.3-.474-6.068,1.871-6.791,3.727-3.36-1.4-7.017.433-7.017.433l11.076,4.021A8.382,8.382,0,0,0,685.19,323.086Z" transform="translate(-330.633 -262.069)" fill="#3f3d56"/><path d="M460.19,258.086l5.536-4.428c-4.3-.474-6.068,1.871-6.791,3.727-3.36-1.4-7.017.433-7.017.433l11.076,4.021A8.381,8.381,0,0,0,460.19,258.086Z" transform="translate(-240.936 -236.157)" fill="#3f3d56"/><path d="M827.19,229.086l5.536-4.428c-4.3-.474-6.068,1.871-6.791,3.727-3.36-1.4-7.017.433-7.017.433l11.076,4.021a8.382,8.382,0,0,0-2.8-3.754Z" transform="translate(-387.242 -224.596)" fill="#3f3d56"/><path d="M838.5,660.852a8.371,8.371,0,0,0-4.192,1.125,9.009,9.009,0,0,0-15.051,6.693h27.632A8.413,8.413,0,0,0,838.5,660.852Z" transform="translate(-387.379 -398.032)" fill="#3f3d56"/><path d="M371.5,660.852a8.37,8.37,0,0,0-4.192,1.125,9.009,9.009,0,0,0-15.051,6.693h27.632A8.413,8.413,0,0,0,371.5,660.852Z" transform="translate(-201.207 -398.032)" fill="#3f3d56"/><path d="M610.5,660.852a8.37,8.37,0,0,0-4.192,1.125,9.009,9.009,0,0,0-15.051,6.693h27.632A8.413,8.413,0,0,0,610.5,660.852Z" transform="translate(-296.486 -398.032)" fill="#3f3d56"/><path d="M418.91,404.228H339.191V406.8h12.433v24.43H354.2V406.8H402.62v24.43h2.572V406.8H418.91Z" transform="translate(-135.22 -161.147)" fill="#3f3d56"/><rect width="79.719" height="2.572" transform="translate(204.128 235.388)" fill="#3f3d56"/><rect width="79.719" height="2.572" transform="translate(204.128 228.959)" fill="#3f3d56"/><rect width="79.719" height="2.572" transform="translate(204.128 222.53)" fill="#3f3d56"/><path d="M625.91,404.228H546.191V406.8h12.433v24.43H561.2V406.8H609.62v24.43h2.572V406.8H625.91Z" transform="translate(-217.741 -161.147)" fill="#3f3d56"/><rect width="79.719" height="2.572" transform="translate(328.607 235.388)" fill="#3f3d56"/><rect width="79.719" height="2.572" transform="translate(328.607 228.959)" fill="#3f3d56"/><rect width="79.719" height="2.572" transform="translate(328.607 222.53)" fill="#3f3d56"/></g></svg>